<mxfile host="app.diagrams.net" modified="2024-03-13T01:33:12.185Z" agent="Mozilla/5.0 (Windows NT 10.0; Win64; x64; rv:123.0) Gecko/20100101 Firefox/123.0" etag="6fFsPTAtCwPFQYiPhhFT" version="24.0.5" type="device">
  <diagram name="Page-1" id="p824ntUY7CD0bQ0piijh">
    <mxGraphModel dx="792" dy="1103" grid="1" gridSize="10" guides="1" tooltips="1" connect="1" arrows="1" fold="1" page="1" pageScale="1" pageWidth="850" pageHeight="1100" math="0" shadow="0">
      <root>
        <mxCell id="0" />
        <mxCell id="1" parent="0" />
        <mxCell id="j4HUMax_7GYs-LsPhQUX-11" style="edgeStyle=orthogonalEdgeStyle;rounded=0;orthogonalLoop=1;jettySize=auto;html=1;exitX=0.5;exitY=1;exitDx=0;exitDy=0;entryX=0.5;entryY=0;entryDx=0;entryDy=0;" edge="1" parent="1" source="j4HUMax_7GYs-LsPhQUX-1" target="j4HUMax_7GYs-LsPhQUX-3">
          <mxGeometry relative="1" as="geometry" />
        </mxCell>
        <mxCell id="j4HUMax_7GYs-LsPhQUX-1" value="Start" style="rounded=1;whiteSpace=wrap;html=1;" vertex="1" parent="1">
          <mxGeometry x="340" y="90" width="120" height="60" as="geometry" />
        </mxCell>
        <mxCell id="j4HUMax_7GYs-LsPhQUX-13" style="edgeStyle=orthogonalEdgeStyle;rounded=0;orthogonalLoop=1;jettySize=auto;html=1;exitX=0.5;exitY=1;exitDx=0;exitDy=0;entryX=0.5;entryY=0;entryDx=0;entryDy=0;" edge="1" parent="1" source="j4HUMax_7GYs-LsPhQUX-2" target="j4HUMax_7GYs-LsPhQUX-6">
          <mxGeometry relative="1" as="geometry" />
        </mxCell>
        <mxCell id="j4HUMax_7GYs-LsPhQUX-2" value="Generate as many blanks as letters in the word" style="rounded=1;whiteSpace=wrap;html=1;" vertex="1" parent="1">
          <mxGeometry x="340" y="330" width="120" height="60" as="geometry" />
        </mxCell>
        <mxCell id="j4HUMax_7GYs-LsPhQUX-12" style="edgeStyle=orthogonalEdgeStyle;rounded=0;orthogonalLoop=1;jettySize=auto;html=1;exitX=0.5;exitY=1;exitDx=0;exitDy=0;entryX=0.5;entryY=0;entryDx=0;entryDy=0;" edge="1" parent="1" source="j4HUMax_7GYs-LsPhQUX-3" target="j4HUMax_7GYs-LsPhQUX-2">
          <mxGeometry relative="1" as="geometry" />
        </mxCell>
        <mxCell id="j4HUMax_7GYs-LsPhQUX-3" value="Generate a random word" style="rounded=1;whiteSpace=wrap;html=1;" vertex="1" parent="1">
          <mxGeometry x="340" y="210" width="120" height="60" as="geometry" />
        </mxCell>
        <mxCell id="j4HUMax_7GYs-LsPhQUX-17" style="edgeStyle=orthogonalEdgeStyle;rounded=0;orthogonalLoop=1;jettySize=auto;html=1;exitX=0.5;exitY=1;exitDx=0;exitDy=0;entryX=0.5;entryY=0;entryDx=0;entryDy=0;" edge="1" parent="1" source="j4HUMax_7GYs-LsPhQUX-4" target="j4HUMax_7GYs-LsPhQUX-8">
          <mxGeometry relative="1" as="geometry" />
        </mxCell>
        <mxCell id="j4HUMax_7GYs-LsPhQUX-4" value="Replace the blank with the letter" style="rounded=1;whiteSpace=wrap;html=1;" vertex="1" parent="1">
          <mxGeometry x="180" y="690" width="120" height="60" as="geometry" />
        </mxCell>
        <mxCell id="j4HUMax_7GYs-LsPhQUX-15" style="edgeStyle=orthogonalEdgeStyle;rounded=0;orthogonalLoop=1;jettySize=auto;html=1;exitX=0;exitY=0.5;exitDx=0;exitDy=0;entryX=0.5;entryY=0;entryDx=0;entryDy=0;" edge="1" parent="1" source="j4HUMax_7GYs-LsPhQUX-5" target="j4HUMax_7GYs-LsPhQUX-4">
          <mxGeometry relative="1" as="geometry" />
        </mxCell>
        <mxCell id="j4HUMax_7GYs-LsPhQUX-16" style="edgeStyle=orthogonalEdgeStyle;rounded=0;orthogonalLoop=1;jettySize=auto;html=1;exitX=1;exitY=0.5;exitDx=0;exitDy=0;entryX=0.5;entryY=0;entryDx=0;entryDy=0;" edge="1" parent="1" source="j4HUMax_7GYs-LsPhQUX-5" target="j4HUMax_7GYs-LsPhQUX-7">
          <mxGeometry relative="1" as="geometry" />
        </mxCell>
        <mxCell id="j4HUMax_7GYs-LsPhQUX-5" value="is the guessed letter in the word?" style="rhombus;whiteSpace=wrap;html=1;" vertex="1" parent="1">
          <mxGeometry x="325" y="560" width="150" height="80" as="geometry" />
        </mxCell>
        <mxCell id="j4HUMax_7GYs-LsPhQUX-14" style="edgeStyle=orthogonalEdgeStyle;rounded=0;orthogonalLoop=1;jettySize=auto;html=1;exitX=0.5;exitY=1;exitDx=0;exitDy=0;entryX=0.5;entryY=0;entryDx=0;entryDy=0;" edge="1" parent="1" source="j4HUMax_7GYs-LsPhQUX-6" target="j4HUMax_7GYs-LsPhQUX-5">
          <mxGeometry relative="1" as="geometry" />
        </mxCell>
        <mxCell id="j4HUMax_7GYs-LsPhQUX-6" value="Ask the user to guess a letter" style="rounded=1;whiteSpace=wrap;html=1;" vertex="1" parent="1">
          <mxGeometry x="340" y="460" width="120" height="60" as="geometry" />
        </mxCell>
        <mxCell id="j4HUMax_7GYs-LsPhQUX-18" style="edgeStyle=orthogonalEdgeStyle;rounded=0;orthogonalLoop=1;jettySize=auto;html=1;exitX=0.5;exitY=1;exitDx=0;exitDy=0;entryX=0.5;entryY=0;entryDx=0;entryDy=0;" edge="1" parent="1" source="j4HUMax_7GYs-LsPhQUX-7" target="j4HUMax_7GYs-LsPhQUX-9">
          <mxGeometry relative="1" as="geometry" />
        </mxCell>
        <mxCell id="j4HUMax_7GYs-LsPhQUX-7" value="Lose a life" style="rounded=1;whiteSpace=wrap;html=1;" vertex="1" parent="1">
          <mxGeometry x="500" y="690" width="120" height="60" as="geometry" />
        </mxCell>
        <mxCell id="j4HUMax_7GYs-LsPhQUX-20" style="edgeStyle=orthogonalEdgeStyle;rounded=0;orthogonalLoop=1;jettySize=auto;html=1;exitX=0.5;exitY=1;exitDx=0;exitDy=0;" edge="1" parent="1" source="j4HUMax_7GYs-LsPhQUX-8">
          <mxGeometry relative="1" as="geometry">
            <mxPoint x="400" y="930" as="targetPoint" />
          </mxGeometry>
        </mxCell>
        <mxCell id="j4HUMax_7GYs-LsPhQUX-22" style="edgeStyle=orthogonalEdgeStyle;rounded=0;orthogonalLoop=1;jettySize=auto;html=1;exitX=0;exitY=0.5;exitDx=0;exitDy=0;entryX=0;entryY=0.5;entryDx=0;entryDy=0;" edge="1" parent="1" source="j4HUMax_7GYs-LsPhQUX-8" target="j4HUMax_7GYs-LsPhQUX-6">
          <mxGeometry relative="1" as="geometry" />
        </mxCell>
        <mxCell id="j4HUMax_7GYs-LsPhQUX-8" value="Are all the blanks filled?" style="rhombus;whiteSpace=wrap;html=1;" vertex="1" parent="1">
          <mxGeometry x="165" y="800" width="150" height="80" as="geometry" />
        </mxCell>
        <mxCell id="j4HUMax_7GYs-LsPhQUX-19" style="edgeStyle=orthogonalEdgeStyle;rounded=0;orthogonalLoop=1;jettySize=auto;html=1;exitX=0.5;exitY=1;exitDx=0;exitDy=0;entryX=0.5;entryY=0;entryDx=0;entryDy=0;" edge="1" parent="1" source="j4HUMax_7GYs-LsPhQUX-9" target="j4HUMax_7GYs-LsPhQUX-10">
          <mxGeometry relative="1" as="geometry" />
        </mxCell>
        <mxCell id="j4HUMax_7GYs-LsPhQUX-21" style="edgeStyle=orthogonalEdgeStyle;rounded=0;orthogonalLoop=1;jettySize=auto;html=1;exitX=1;exitY=0.5;exitDx=0;exitDy=0;entryX=1;entryY=0.5;entryDx=0;entryDy=0;" edge="1" parent="1" source="j4HUMax_7GYs-LsPhQUX-9" target="j4HUMax_7GYs-LsPhQUX-6">
          <mxGeometry relative="1" as="geometry" />
        </mxCell>
        <mxCell id="j4HUMax_7GYs-LsPhQUX-9" value="Have they run out of lives" style="rhombus;whiteSpace=wrap;html=1;" vertex="1" parent="1">
          <mxGeometry x="485" y="800" width="150" height="80" as="geometry" />
        </mxCell>
        <mxCell id="j4HUMax_7GYs-LsPhQUX-10" value="Game Over" style="rounded=1;whiteSpace=wrap;html=1;" vertex="1" parent="1">
          <mxGeometry x="340" y="930" width="120" height="60" as="geometry" />
        </mxCell>
        <mxCell id="j4HUMax_7GYs-LsPhQUX-23" value="Yes" style="text;html=1;align=center;verticalAlign=middle;whiteSpace=wrap;rounded=0;" vertex="1" parent="1">
          <mxGeometry x="170" y="620" width="60" height="30" as="geometry" />
        </mxCell>
        <mxCell id="j4HUMax_7GYs-LsPhQUX-24" value="No" style="text;html=1;align=center;verticalAlign=middle;whiteSpace=wrap;rounded=0;" vertex="1" parent="1">
          <mxGeometry x="570" y="620" width="60" height="30" as="geometry" />
        </mxCell>
      </root>
    </mxGraphModel>
  </diagram>
</mxfile>
